<?xml version="1.0" encoding="UTF-8" standalone="no"?>
<!-- Created with Inkscape (http://www.inkscape.org/) -->

<svg
   width="193.87093mm"
   height="75.00425mm"
   viewBox="0 0 193.87093 75.00425"
   version="1.1"
   id="svg8"
   inkscape:version="1.1.1 (3bf5ae0, 2021-09-20)"
   sodipodi:docname="less-than-2.svg"
   xmlns:inkscape="http://www.inkscape.org/namespaces/inkscape"
   xmlns:sodipodi="http://sodipodi.sourceforge.net/DTD/sodipodi-0.dtd"
   xmlns="http://www.w3.org/2000/svg"
   xmlns:svg="http://www.w3.org/2000/svg"
   xmlns:rdf="http://www.w3.org/1999/02/22-rdf-syntax-ns#"
   xmlns:cc="http://creativecommons.org/ns#"
   xmlns:dc="http://purl.org/dc/elements/1.1/">
  <defs
     id="defs2" />
  <sodipodi:namedview
     id="base"
     pagecolor="#ffffff"
     bordercolor="#666666"
     borderopacity="1.0"
     inkscape:pageopacity="0.0"
     inkscape:pageshadow="2"
     inkscape:zoom="0.35"
     inkscape:cx="1184.2857"
     inkscape:cy="350"
     inkscape:document-units="mm"
     inkscape:current-layer="g8"
     showgrid="false"
     fit-margin-top="0"
     fit-margin-left="0"
     fit-margin-right="0"
     fit-margin-bottom="0"
     inkscape:window-width="1858"
     inkscape:window-height="1016"
     inkscape:window-x="62"
     inkscape:window-y="27"
     inkscape:window-maximized="1"
     inkscape:pagecheckerboard="0" />
  <metadata
     id="metadata5">
    <rdf:RDF>
      <cc:Work
         rdf:about="">
        <dc:format>image/svg+xml</dc:format>
        <dc:type
           rdf:resource="http://purl.org/dc/dcmitype/StillImage" />
      </cc:Work>
    </rdf:RDF>
  </metadata>
  <g
     inkscape:label="Layer 1"
     inkscape:groupmode="layer"
     id="layer1"
     transform="translate(-10.01863,-71.201185)">
    <g
       style="font-weight:400;font-family:sans-serif;letter-spacing:0;word-spacing:0;stroke-width:0.20559233"
       transform="matrix(1.3727245,0,0,1.3727245,34.068019,67.880601)"
       id="g8"
       word-spacing="0"
       letter-spacing="0"
       font-weight="400">
      <g
         aria-label="&lt;"
         id="text4"
         style="font-size:96.3px;line-height:125%;fill:#0000ff;stroke-width:0.0569214">
        <path
           d="M 81.869551,14.174345 36.540839,29.785478 81.869551,45.302568 V 57.05794 L 21.588007,35.286992 V 24.189921 L 81.869551,2.4189732 Z"
           style="font-weight:700;-inkscape-font-specification:'sans-serif Bold';stroke-width:0.205592"
           id="path1002" />
      </g>
      <text
         id="text6"
         transform="translate(-173.548,-402.077)"
         font-size="22.158"
         y="383.85001"
         x="144.689"
         style="font-size:22.158px;line-height:125%;stroke-width:0.0569214" />
      <g
         aria-label="a"
         id="text4-3"
         style="font-size:49.5148px;line-height:125%;fill:#0000ff;stroke-width:0.0292674">
        <path
           d="m -3.3516468,29.679829 q -2.7078406,0 -4.0859381,0.918732 -1.3539204,0.918732 -1.3539204,2.707841 0,1.644046 1.0879717,2.586955 1.1121489,0.918731 3.070498,0.918731 2.441892,0 4.11011527,-1.740755 Q 1.145303,33.306402 1.145303,30.671092 V 29.679829 Z M 9.8732537,26.415914 V 41.865112 H 1.145303 v -4.013406 q -1.74075477,2.466069 -3.9166982,3.602395 -2.1759434,1.112149 -5.2947956,1.112149 -4.2068242,0 -6.8421332,-2.441892 -2.611132,-2.46607 -2.611132,-6.382768 0,-4.762898 3.263915,-6.987196 3.288092,-2.224297 10.2994655,-2.224297 H 1.145303 v -0.676961 q 0,-2.055057 -1.61986903,-2.997966 -1.61986897,-0.967086 -5.05302417,-0.967086 -2.7803721,0 -5.1739098,0.556074 -2.393538,0.556075 -4.448595,1.668224 V 15.51202 q 2.780372,-0.67696 5.584921,-1.01544 2.8045492,-0.362658 5.6090985,-0.362658 7.3256762,0 10.5654141,2.901258 3.2639151,2.877081 3.2639151,9.380734 z"
           style="font-weight:700;-inkscape-font-specification:'sans-serif Bold';stroke-width:0.10571"
           id="path962" />
      </g>
      <g
         aria-label="b"
         id="text4-3-7"
         style="font-size:49.5148px;line-height:125%;fill:#0000ff;stroke-width:0.0292674">
        <path
           d="m 109.05999,36.280191 q 2.78037,0 4.231,-2.030881 1.4748,-2.03088 1.4748,-5.899224 0,-3.868344 -1.4748,-5.899224 -1.45063,-2.030881 -4.231,-2.030881 -2.78038,0 -4.27936,2.055058 -1.47481,2.03088 -1.47481,5.875047 0,3.844167 1.47481,5.899224 1.49898,2.030881 4.27936,2.030881 z m -5.75417,-17.528433 q 1.78911,-2.369361 3.96506,-3.48151 2.17594,-1.136326 5.00467,-1.136326 5.00467,0 8.22023,3.98923 3.21556,3.965052 3.21556,10.226934 0,6.261882 -3.21556,10.251111 -3.21556,3.965053 -8.22023,3.965053 -2.82873,0 -5.00467,-1.112149 -2.17595,-1.136326 -3.96506,-3.505687 v 3.916698 H 94.650405 V 4.2454686 h 8.655415 z"
           style="font-weight:700;-inkscape-font-specification:'sans-serif Bold';stroke-width:0.10571"
           id="path1024" />
      </g>
    </g>
  </g>
</svg>
