<?xml version="1.0" encoding="UTF-8" standalone="no"?>
<!-- Created with Inkscape (http://www.inkscape.org/) -->

<svg
   width="193.87097mm"
   height="110.90699mm"
   viewBox="0 0 193.87098 110.90699"
   version="1.1"
   id="svg8"
   inkscape:version="1.2 (dc2aeda, 2022-05-15)"
   sodipodi:docname="signed-less-than-2.svg"
   xmlns:inkscape="http://www.inkscape.org/namespaces/inkscape"
   xmlns:sodipodi="http://sodipodi.sourceforge.net/DTD/sodipodi-0.dtd"
   xmlns="http://www.w3.org/2000/svg"
   xmlns:svg="http://www.w3.org/2000/svg"
   xmlns:rdf="http://www.w3.org/1999/02/22-rdf-syntax-ns#"
   xmlns:cc="http://creativecommons.org/ns#"
   xmlns:dc="http://purl.org/dc/elements/1.1/">
  <defs
     id="defs2" />
  <sodipodi:namedview
     id="base"
     pagecolor="#ffffff"
     bordercolor="#666666"
     borderopacity="1.0"
     inkscape:pageopacity="0.0"
     inkscape:pageshadow="2"
     inkscape:zoom="0.35"
     inkscape:cx="1185.7143"
     inkscape:cy="484.28571"
     inkscape:document-units="mm"
     inkscape:current-layer="g8"
     showgrid="false"
     fit-margin-top="0"
     fit-margin-left="0"
     fit-margin-right="0"
     fit-margin-bottom="0"
     inkscape:window-width="1858"
     inkscape:window-height="1016"
     inkscape:window-x="62"
     inkscape:window-y="1107"
     inkscape:window-maximized="1"
     inkscape:pagecheckerboard="0"
     inkscape:showpageshadow="2"
     inkscape:deskcolor="#d1d1d1" />
  <metadata
     id="metadata5">
    <rdf:RDF>
      <cc:Work
         rdf:about="">
        <dc:format>image/svg+xml</dc:format>
        <dc:type
           rdf:resource="http://purl.org/dc/dcmitype/StillImage" />
      </cc:Work>
    </rdf:RDF>
  </metadata>
  <g
     inkscape:label="Layer 1"
     inkscape:groupmode="layer"
     id="layer1"
     transform="translate(-10.018633,-35.29844)">
    <g
       style="font-weight:400;font-family:sans-serif;letter-spacing:0;word-spacing:0;stroke-width:0.205592"
       transform="matrix(1.3727245,0,0,1.3727245,34.068019,67.880601)"
       id="g8"
       word-spacing="0"
       letter-spacing="0"
       font-weight="400">
      <g
         aria-label="&lt;"
         id="text4"
         style="font-size:96.3px;line-height:125%;fill:#0000ff;stroke-width:0.0569214">
        <path
           d="M 81.869551,14.174345 36.540839,29.785478 81.869551,45.302568 V 57.05794 L 21.588007,35.286992 V 24.189921 L 81.869551,2.4189732 Z"
           style="font-weight:700;-inkscape-font-specification:'sans-serif Bold';stroke-width:0.205592"
           id="path1002" />
      </g>
      <text
         id="text6"
         transform="translate(-173.548,-402.077)"
         font-size="22.158"
         y="383.85001"
         x="144.689"
         style="font-size:22.158px;line-height:125%;stroke-width:0.0569214" />
      <g
         aria-label="a"
         id="text4-3"
         style="font-size:49.5148px;line-height:125%;fill:#0000ff;stroke-width:0.0292674">
        <path
           d="m -3.3516468,29.679829 q -2.7078406,0 -4.0859381,0.918732 -1.3539204,0.918732 -1.3539204,2.707841 0,1.644046 1.0879717,2.586955 1.1121489,0.918731 3.070498,0.918731 2.441892,0 4.11011527,-1.740755 Q 1.145303,33.306402 1.145303,30.671092 V 29.679829 Z M 9.8732537,26.415914 V 41.865112 H 1.145303 v -4.013406 q -1.74075477,2.466069 -3.9166982,3.602395 -2.1759434,1.112149 -5.2947956,1.112149 -4.2068242,0 -6.8421332,-2.441892 -2.611132,-2.46607 -2.611132,-6.382768 0,-4.762898 3.263915,-6.987196 3.288092,-2.224297 10.2994655,-2.224297 H 1.145303 v -0.676961 q 0,-2.055057 -1.61986903,-2.997966 -1.61986897,-0.967086 -5.05302417,-0.967086 -2.7803721,0 -5.1739098,0.556074 -2.393538,0.556075 -4.448595,1.668224 V 15.51202 q 2.780372,-0.67696 5.584921,-1.01544 2.8045492,-0.362658 5.6090985,-0.362658 7.3256762,0 10.5654141,2.901258 3.2639151,2.877081 3.2639151,9.380734 z"
           style="font-weight:700;-inkscape-font-specification:'sans-serif Bold';stroke-width:0.10571"
           id="path962" />
      </g>
      <g
         aria-label="b"
         id="text4-3-7"
         style="font-size:49.5148px;line-height:125%;fill:#0000ff;stroke-width:0.0292674">
        <path
           d="m 109.05999,36.280191 q 2.78037,0 4.231,-2.030881 1.4748,-2.03088 1.4748,-5.899224 0,-3.868344 -1.4748,-5.899224 -1.45063,-2.030881 -4.231,-2.030881 -2.78038,0 -4.27936,2.055058 -1.47481,2.03088 -1.47481,5.875047 0,3.844167 1.47481,5.899224 1.49898,2.030881 4.27936,2.030881 z m -5.75417,-17.528433 q 1.78911,-2.369361 3.96506,-3.48151 2.17594,-1.136326 5.00467,-1.136326 5.00467,0 8.22023,3.98923 3.21556,3.965052 3.21556,10.226934 0,6.261882 -3.21556,10.251111 -3.21556,3.965053 -8.22023,3.965053 -2.82873,0 -5.00467,-1.112149 -2.17595,-1.136326 -3.96506,-3.505687 v 3.916698 H 94.650405 V 4.2454686 h 8.655415 z"
           style="font-weight:700;-inkscape-font-specification:'sans-serif Bold';stroke-width:0.10571"
           id="path1024" />
      </g>
      <g
         aria-label="Signed"
         id="text6773"
         style="font-size:21.2145px;line-height:1.25;fill:#ff0000;stroke-width:0.0396265">
        <path
           d="m 26.388948,-22.595947 v 3.273332 q -1.274113,-0.569726 -2.486074,-0.859768 -1.211962,-0.290042 -2.289261,-0.290042 -1.429492,0 -2.113163,0.393629 -0.68367,0.393628 -0.68367,1.222319 0,0.621519 0.45578,0.973713 0.466139,0.341835 1.6781,0.590442 l 1.698818,0.341836 q 2.579302,0.517932 3.666959,1.574513 1.087658,1.056582 1.087658,3.004007 0,2.5585846 -1.522721,3.8119804 -1.512362,1.2430371 -4.630313,1.2430371 -1.470927,0 -2.952213,-0.2796834 -1.481286,-0.2796833 -2.962572,-0.8286914 v -3.3665587 q 1.481286,0.787257 2.858985,1.191244 1.388058,0.393628 2.67253,0.393628 1.305189,0 1.999218,-0.435063 0.694029,-0.435063 0.694029,-1.243037 0,-0.725105 -0.476497,-1.118733 -0.466139,-0.393629 -1.874915,-0.704388 l -1.543437,-0.341835 q -2.320336,-0.497215 -3.397635,-1.584873 -1.06694,-1.087657 -1.06694,-2.931496 0,-2.309977 1.491644,-3.553014 1.491645,-1.243037 4.288478,-1.243037 1.274113,0 2.620737,0.196814 1.346623,0.186456 2.786475,0.569725 z"
           style="font-weight:bold;-inkscape-font-specification:'sans-serif Bold'"
           id="path6775" />
        <path
           d="m 30.739578,-19.219029 h 3.708394 v 11.6016799 h -3.708394 z m 0,-4.516368 h 3.708394 v 3.024723 h -3.708394 z"
           style="font-weight:bold;-inkscape-font-specification:'sans-serif Bold'"
           id="path6777" />
        <path
           d="m 45.904631,-9.5854913 q -0.766539,1.015147 -1.688458,1.4916446 -0.92192,0.4764976 -2.133881,0.4764976 -2.123522,0 -3.51158,-1.6677415 -1.388058,-1.6781004 -1.388058,-4.2677604 0,-2.60002 1.388058,-4.257403 1.388058,-1.667741 3.51158,-1.667741 1.211961,0 2.133881,0.476497 0.921919,0.476498 1.688458,1.502004 v -1.719535 h 3.729112 v 10.4311532 q 0,2.7968336 -1.771328,4.2677608 -1.760969,1.481286 -5.11717,1.481286 -1.087657,0 -2.102804,-0.1657383 -1.015147,-0.1657383 -2.040653,-0.5075735 v -2.8900614 q 0.973713,0.5593668 1.905991,0.8286915 0.932277,0.2796833 1.874914,0.2796833 1.823121,0 2.67253,-0.7976155 0.849408,-0.7976155 0.849408,-2.4964329 z m -2.444639,-7.2199737 q -1.14981,0 -1.792045,0.849408 -0.642236,0.849409 -0.642236,2.403206 0,1.595231 0.621518,2.423922 0.621519,0.818333 1.812763,0.818333 1.160168,0 1.802404,-0.849409 0.642235,-0.849409 0.642235,-2.392846 0,-1.553797 -0.642235,-2.403206 -0.642236,-0.849408 -1.802404,-0.849408 z"
           style="font-weight:bold;-inkscape-font-specification:'sans-serif Bold'"
           id="path6779" />
        <path
           d="m 64.860946,-14.681944 v 7.0645949 h -3.729112 v -1.1498094 -4.2574025 q 0,-1.502003 -0.07251,-2.071728 -0.06215,-0.569726 -0.22789,-0.83905 -0.217532,-0.362553 -0.590443,-0.559367 -0.372911,-0.207173 -0.849409,-0.207173 -1.160168,0 -1.823121,0.901202 -0.662953,0.890843 -0.662953,2.475716 v 5.7076119 H 53.197114 V -19.219029 h 3.708394 v 1.698817 q 0.83905,-1.015147 1.781686,-1.491644 0.942637,-0.486856 2.082088,-0.486856 2.009576,0 3.045441,1.232678 1.046223,1.232679 1.046223,3.58409 z"
           style="font-weight:bold;-inkscape-font-specification:'sans-serif Bold'"
           id="path6781" />
        <path
           d="m 79.880978,-13.449265 v 1.056582 h -8.670184 q 0.134662,1.305189 0.942636,1.957783 0.807974,0.6525945 2.258184,0.6525945 1.170527,0 2.392847,-0.3418355 1.232678,-0.352194 2.527509,-1.056581 v 2.8589851 q -1.315548,0.4972149 -2.631095,0.7458223 -1.315548,0.2589661 -2.631096,0.2589661 -3.149027,0 -4.899638,-1.595231 -1.740252,-1.6055895 -1.740252,-4.4956505 0,-2.838269 1.709176,-4.464576 1.719535,-1.626306 4.723541,-1.626306 2.734682,0 4.371348,1.647024 1.647024,1.647024 1.647024,4.402423 z m -3.811981,-1.232679 q 0,-1.056581 -0.621518,-1.698817 -0.61116,-0.652594 -1.60559,-0.652594 -1.077299,0 -1.750611,0.611159 -0.673311,0.600802 -0.83905,1.740252 z"
           style="font-weight:bold;-inkscape-font-specification:'sans-serif Bold'"
           id="path6783" />
        <path
           d="m 90.581458,-17.520212 v -6.215185 h 3.729111 v 16.1180479 h -3.729111 v -1.6781002 q -0.76654,1.0255057 -1.688459,1.5020032 -0.921919,0.4764976 -2.13388,0.4764976 -2.144239,0 -3.521939,-1.6988174 -1.377699,-1.7091761 -1.377699,-4.3920641 0,-2.682889 1.377699,-4.381706 1.3777,-1.709176 3.521939,-1.709176 1.201602,0 2.123522,0.486856 0.932277,0.476497 1.698817,1.491644 z m -2.44464,7.510016 q 1.191244,0 1.812763,-0.870126 0.631877,-0.870126 0.631877,-2.527508 0,-1.657383 -0.631877,-2.527509 -0.621519,-0.870126 -1.812763,-0.870126 -1.180885,0 -1.812762,0.870126 -0.621519,0.870126 -0.621519,2.527509 0,1.657382 0.621519,2.527508 0.631877,0.870126 1.812762,0.870126 z"
           style="font-weight:bold;-inkscape-font-specification:'sans-serif Bold'"
           id="path6785" />
      </g>
    </g>
  </g>
</svg>
